<?xml version="1.0" encoding="UTF-8"?>
<!DOCTYPE svg PUBLIC "-//W3C//DTD SVG 1.1//EN" "http://www.w3.org/Graphics/SVG/1.1/DTD/svg11.dtd">
<svg xmlns="http://www.w3.org/2000/svg" version="1.1" width="484px" height="516px" style="shape-rendering:geometricPrecision; text-rendering:geometricPrecision; image-rendering:optimizeQuality; fill-rule:evenodd; clip-rule:evenodd" xmlns:xlink="http://www.w3.org/1999/xlink">
<g><path style="opacity:0.922" fill="#bfd5ef" d="M 246.5,137.5 C 241.047,137.365 235.714,138.032 230.5,139.5C 232.148,138.073 234.148,137.24 236.5,137C 240.027,136.192 243.36,136.359 246.5,137.5 Z"/></g>
<g><path style="opacity:1" fill="#6d9dda" d="M 246.5,137.5 C 248.099,137.232 249.432,137.566 250.5,138.5C 250.982,139.416 251.315,140.416 251.5,141.5C 250.453,143.056 249.786,144.723 249.5,146.5C 248.566,145.432 248.232,144.099 248.5,142.5C 244.5,142.5 240.5,142.5 236.5,142.5C 235.903,147.294 236.57,151.627 238.5,155.5C 244.309,157.455 244.809,160.455 240,164.5C 238.703,163.216 237.536,163.383 236.5,165C 237.308,165.308 237.975,165.808 238.5,166.5C 236.584,173.624 235.917,180.957 236.5,188.5C 235.672,182.013 235.172,175.346 235,168.5C 233.758,167.128 232.258,166.128 230.5,165.5C 224.271,169.114 217.938,172.447 211.5,175.5C 209.883,176.038 208.216,176.371 206.5,176.5C 206.586,174.323 207.253,172.323 208.5,170.5C 213.619,164.262 217.952,158.095 221.5,152C 222.551,150.615 223.884,149.615 225.5,149C 225.167,148.667 224.833,148.333 224.5,148C 226.904,147.492 227.571,146.325 226.5,144.5C 227.18,143.14 227.847,141.807 228.5,140.5C 228.842,139.662 229.508,139.328 230.5,139.5C 235.714,138.032 241.047,137.365 246.5,137.5 Z"/></g>
<g><path style="opacity:0.999" fill="#838dd2" d="M 250.5,138.5 C 262.349,144.04 273.682,150.373 284.5,157.5C 281.404,158.093 279.071,157.093 277.5,154.5C 275.062,157.713 272.396,160.713 269.5,163.5C 268.42,165.996 267.086,168.33 265.5,170.5C 265.808,171.308 266.308,171.975 267,172.5C 269.528,171.481 271.028,172.481 271.5,175.5C 265.062,172.447 258.729,169.114 252.5,165.5C 250.64,166.26 248.973,167.26 247.5,168.5C 246.599,169.29 245.932,170.29 245.5,171.5C 244.818,175.073 243.318,178.406 241,181.5C 239.989,182.337 238.822,182.67 237.5,182.5C 237.5,194.5 237.5,206.5 237.5,218.5C 237.5,229.5 237.5,240.5 237.5,251.5C 236.833,251.5 236.5,251.833 236.5,252.5C 236.289,231.345 236.289,210.012 236.5,188.5C 235.917,180.957 236.584,173.624 238.5,166.5C 237.975,165.808 237.308,165.308 236.5,165C 237.536,163.383 238.703,163.216 240,164.5C 244.809,160.455 244.309,157.455 238.5,155.5C 242.198,155.552 245.865,155.886 249.5,156.5C 249.5,153.167 249.5,149.833 249.5,146.5C 249.786,144.723 250.453,143.056 251.5,141.5C 251.315,140.416 250.982,139.416 250.5,138.5 Z"/></g>
<g><path style="opacity:1" fill="#5fa6df" d="M 228.5,140.5 C 227.847,141.807 227.18,143.14 226.5,144.5C 227.571,146.325 226.904,147.492 224.5,148C 224.833,148.333 225.167,148.667 225.5,149C 223.884,149.615 222.551,150.615 221.5,152C 217.952,158.095 213.619,164.262 208.5,170.5C 207.253,172.323 206.586,174.323 206.5,176.5C 208.216,176.371 209.883,176.038 211.5,175.5C 202.733,181.057 193.733,186.39 184.5,191.5C 181.451,192.101 178.451,192.601 175.5,193C 177.291,192.585 178.624,191.585 179.5,190C 178.07,188.114 176.403,186.447 174.5,185C 176.669,186.114 178.502,185.614 180,183.5C 184.043,177.247 188.21,171.08 192.5,165C 195.446,164.194 198.112,162.861 200.5,161C 199.167,159.16 199.334,158.66 201,159.5C 201.41,158.099 201.91,156.766 202.5,155.5C 210.832,149.998 219.499,144.998 228.5,140.5 Z"/></g>
<g><path style="opacity:1" fill="#6280bb" d="M 249.5,146.5 C 249.5,149.833 249.5,153.167 249.5,156.5C 245.865,155.886 242.198,155.552 238.5,155.5C 236.57,151.627 235.903,147.294 236.5,142.5C 240.5,142.5 244.5,142.5 248.5,142.5C 248.232,144.099 248.566,145.432 249.5,146.5 Z"/></g>
<g><path style="opacity:1" fill="#9474c7" d="M 284.5,157.5 C 291.005,160.917 297.338,164.584 303.5,168.5C 301.396,168.201 299.396,168.534 297.5,169.5C 295.657,173.174 292.99,176.008 289.5,178C 289.905,180.847 290.239,183.68 290.5,186.5C 289.508,186.672 288.842,186.338 288.5,185.5C 288.027,184.094 287.027,183.427 285.5,183.5C 283.847,183.34 282.514,182.674 281.5,181.5C 281.027,180.094 280.027,179.427 278.5,179.5C 277.508,179.672 276.842,179.338 276.5,178.5C 276.027,177.094 275.027,176.427 273.5,176.5C 272.508,176.672 271.842,176.338 271.5,175.5C 271.028,172.481 269.528,171.481 267,172.5C 266.308,171.975 265.808,171.308 265.5,170.5C 267.086,168.33 268.42,165.996 269.5,163.5C 272.396,160.713 275.062,157.713 277.5,154.5C 279.071,157.093 281.404,158.093 284.5,157.5 Z"/></g>
<g><path style="opacity:0.999" fill="#a767c1" d="M 303.5,168.5 C 306.511,169.669 309.178,171.336 311.5,173.5C 309.495,174.254 308.828,175.421 309.5,177C 305.719,181.098 302.885,185.598 301,190.5C 302.447,188.597 304.114,186.93 306,185.5C 304.532,188.384 304.032,191.384 304.5,194.5C 301.008,193.59 298.008,191.924 295.5,189.5C 295.027,188.094 294.027,187.427 292.5,187.5C 291.508,187.672 290.842,187.338 290.5,186.5C 290.239,183.68 289.905,180.847 289.5,178C 292.99,176.008 295.657,173.174 297.5,169.5C 299.396,168.534 301.396,168.201 303.5,168.5 Z"/></g>
<g><path style="opacity:1" fill="#88caed" d="M 169.5,174.5 C 162.776,183.592 156.276,192.926 150,202.5C 149.667,202.167 149.333,201.833 149,201.5C 148.5,210.827 148.334,220.161 148.5,229.5C 147.616,247.483 147.283,265.483 147.5,283.5C 146.833,269.837 146.5,256.004 146.5,242C 146.374,226.457 146.874,210.957 148,195.5C 151.719,184.948 158.885,177.948 169.5,174.5 Z"/></g>
<g><path style="opacity:0.731" fill="#cfa5d6" d="M 312.5,173.5 C 314.795,174.475 316.795,175.808 318.5,177.5C 315.112,178.031 313.112,176.697 312.5,173.5 Z"/></g>
<g><path style="opacity:0.224" fill="#ddd4ec" d="M 273.5,176.5 C 275.027,176.427 276.027,177.094 276.5,178.5C 274.973,178.573 273.973,177.906 273.5,176.5 Z"/></g>
<g><path style="opacity:0.869" fill="#d5abda" d="M 318.5,177.5 C 320.153,177.66 321.486,178.326 322.5,179.5C 320.418,179.472 318.584,180.139 317,181.5C 316.7,179.934 317.2,178.601 318.5,177.5 Z"/></g>
<g><path style="opacity:0.29" fill="#dacde9" d="M 278.5,179.5 C 280.027,179.427 281.027,180.094 281.5,181.5C 279.973,181.573 278.973,180.906 278.5,179.5 Z"/></g>
<g><path style="opacity:1" fill="#b259ba" d="M 311.5,173.5 C 311.833,173.5 312.167,173.5 312.5,173.5C 313.112,176.697 315.112,178.031 318.5,177.5C 317.2,178.601 316.7,179.934 317,181.5C 318.584,180.139 320.418,179.472 322.5,179.5C 325.109,180.443 327.109,182.11 328.5,184.5C 326.956,184.703 325.622,185.37 324.5,186.5C 320.787,191.866 317.12,197.2 313.5,202.5C 313.167,202.5 312.833,202.5 312.5,202.5C 311.4,201.395 310.733,200.062 310.5,198.5C 309.738,196.738 308.404,195.738 306.5,195.5C 305.508,195.672 304.842,195.338 304.5,194.5C 304.032,191.384 304.532,188.384 306,185.5C 304.114,186.93 302.447,188.597 301,190.5C 302.885,185.598 305.719,181.098 309.5,177C 308.828,175.421 309.495,174.254 311.5,173.5 Z"/></g>
<g><path style="opacity:1" fill="#50aee3" d="M 202.5,155.5 C 201.91,156.766 201.41,158.099 201,159.5C 199.334,158.66 199.167,159.16 200.5,161C 198.112,162.861 195.446,164.194 192.5,165C 188.21,171.08 184.043,177.247 180,183.5C 178.502,185.614 176.669,186.114 174.5,185C 176.403,186.447 178.07,188.114 179.5,190C 178.624,191.585 177.291,192.585 175.5,193C 178.451,192.601 181.451,192.101 184.5,191.5C 177.589,194.077 172.589,198.743 169.5,205.5C 169.802,208.059 169.468,210.393 168.5,212.5C 168.216,209.223 168.549,206.057 169.5,203C 167.7,202.764 166.034,203.264 164.5,204.5C 158.382,212.421 153.049,220.754 148.5,229.5C 148.334,220.161 148.5,210.827 149,201.5C 149.333,201.833 149.667,202.167 150,202.5C 156.276,192.926 162.776,183.592 169.5,174.5C 180.034,167.398 191.034,161.065 202.5,155.5 Z"/></g>
<g><path style="opacity:0.216" fill="#e6d8ef" d="M 285.5,183.5 C 287.027,183.427 288.027,184.094 288.5,185.5C 286.973,185.573 285.973,184.906 285.5,183.5 Z"/></g>
<g><path style="opacity:0.427" fill="#e6bfe3" d="M 328.5,184.5 C 329.906,184.973 330.573,185.973 330.5,187.5C 329.094,187.027 328.427,186.027 328.5,184.5 Z"/></g>
<g><path style="opacity:0.259" fill="#e1ceea" d="M 292.5,187.5 C 294.027,187.427 295.027,188.094 295.5,189.5C 293.973,189.573 292.973,188.906 292.5,187.5 Z"/></g>
<g><path style="opacity:0.322" fill="#e9c2e4" d="M 330.5,187.5 C 331.906,187.973 332.573,188.973 332.5,190.5C 331.094,190.027 330.427,189.027 330.5,187.5 Z"/></g>
<g><path style="opacity:1" fill="#cb63bc" d="M 328.5,184.5 C 328.427,186.027 329.094,187.027 330.5,187.5C 330.427,189.027 331.094,190.027 332.5,190.5C 333.338,190.842 333.672,191.508 333.5,192.5C 333.41,195.152 334.076,197.485 335.5,199.5C 336.833,227.5 336.833,255.5 335.5,283.5C 335.819,265.757 335.486,248.09 334.5,230.5C 334.666,220.828 334.5,211.161 334,201.5C 327.965,210.931 321.465,219.931 314.5,228.5C 314.775,219.779 314.442,211.113 313.5,202.5C 317.12,197.2 320.787,191.866 324.5,186.5C 325.622,185.37 326.956,184.703 328.5,184.5 Z"/></g>
<g><path style="opacity:0.565" fill="#dfb9e1" d="M 306.5,195.5 C 308.404,195.738 309.738,196.738 310.5,198.5C 308.596,198.262 307.262,197.262 306.5,195.5 Z"/></g>
<g><path style="opacity:0.475" fill="#e8b6df" d="M 333.5,192.5 C 334.924,194.515 335.59,196.848 335.5,199.5C 334.076,197.485 333.41,195.152 333.5,192.5 Z"/></g>
<g><path style="opacity:1" fill="#827ccb" d="M 245.5,171.5 C 245.5,184.167 245.5,196.833 245.5,209.5C 243.983,209.511 242.816,210.177 242,211.5C 240.212,213.76 238.712,216.093 237.5,218.5C 237.5,206.5 237.5,194.5 237.5,182.5C 238.822,182.67 239.989,182.337 241,181.5C 243.318,178.406 244.818,175.073 245.5,171.5 Z"/></g>
<g><path style="opacity:0.339" fill="#d9c5e7" d="M 273.5,201.5 C 272.167,201.5 270.833,201.5 269.5,201.5C 269.5,211.5 269.5,221.5 269.5,231.5C 268.341,221.342 268.175,211.008 269,200.5C 270.749,199.447 272.249,199.78 273.5,201.5 Z"/></g>
<g><path style="opacity:0.776" fill="#c8bce1" d="M 247.5,168.5 C 247.277,215.881 246.944,263.215 246.5,310.5C 246.83,293.658 246.497,276.992 245.5,260.5C 245.5,257.5 245.5,254.5 245.5,251.5C 245.5,250.5 245.5,249.5 245.5,248.5C 240.498,248.478 240.165,247.145 244.5,244.5C 245.499,232.852 245.832,221.186 245.5,209.5C 245.5,196.833 245.5,184.167 245.5,171.5C 245.932,170.29 246.599,169.29 247.5,168.5 Z"/></g>
<g><path style="opacity:1" fill="#aa6ac2" d="M 273.5,201.5 C 279.953,203.31 285.787,206.31 291,210.5C 292.089,214.048 292.589,217.715 292.5,221.5C 292.498,224.686 292.165,227.686 291.5,230.5C 291.829,224.794 291.495,219.128 290.5,213.5C 288.678,213.463 286.678,213.796 284.5,214.5C 281.432,219.422 278.098,224.255 274.5,229C 275.634,230.016 275.301,230.683 273.5,231C 278.823,231.499 284.156,231.666 289.5,231.5C 282.833,232.833 276.167,232.833 269.5,231.5C 269.5,221.5 269.5,211.5 269.5,201.5C 270.833,201.5 272.167,201.5 273.5,201.5 Z"/></g>
<g><path style="opacity:0.69" fill="#a4bee6" d="M 194.5,208.5 C 193.878,209.627 193.045,210.627 192,211.5C 191.5,218.158 191.334,224.825 191.5,231.5C 190.345,224.679 190.179,217.679 191,210.5C 191.816,209.177 192.983,208.511 194.5,208.5 Z"/></g>
<g><path style="opacity:1" fill="#8b6dc0" d="M 245.5,209.5 C 245.832,221.186 245.499,232.852 244.5,244.5C 240.165,247.145 240.498,248.478 245.5,248.5C 245.5,249.5 245.5,250.5 245.5,251.5C 242.833,251.5 240.167,251.5 237.5,251.5C 237.5,240.5 237.5,229.5 237.5,218.5C 238.712,216.093 240.212,213.76 242,211.5C 242.816,210.177 243.983,209.511 245.5,209.5 Z"/></g>
<g><path style="opacity:1" fill="#ad59ba" d="M 291.5,230.5 C 291.158,231.338 290.492,231.672 289.5,231.5C 284.156,231.666 278.823,231.499 273.5,231C 275.301,230.683 275.634,230.016 274.5,229C 278.098,224.255 281.432,219.422 284.5,214.5C 286.678,213.796 288.678,213.463 290.5,213.5C 291.495,219.128 291.829,224.794 291.5,230.5 Z"/></g>
<g><path style="opacity:1" fill="#7692d6" d="M 191.5,231.5 C 191.334,224.825 191.5,218.158 192,211.5C 193.045,210.627 193.878,209.627 194.5,208.5C 199.16,205.503 204.16,203.003 209.5,201C 211.112,200.28 212.612,200.446 214,201.5C 214.667,211.5 214.667,221.5 214,231.5C 206.402,232.827 198.902,232.827 191.5,231.5 Z"/></g>
<g><path style="opacity:1" fill="#cf42af" d="M 334.5,230.5 C 330.472,233.521 327.639,237.521 326,242.5C 322.68,246.663 319.513,250.997 316.5,255.5C 315.726,256.711 314.893,256.711 314,255.5C 313.667,257.167 313.333,258.833 313,260.5C 309.802,262.917 308.969,265.917 310.5,269.5C 304.833,264.5 299.5,259.167 294.5,253.5C 294.389,252.883 294.056,252.383 293.5,252C 297.833,251.667 302.167,251.333 306.5,251C 307.416,250.722 308.082,250.222 308.5,249.5C 310.949,248.06 312.615,246.06 313.5,243.5C 314.487,238.695 314.821,233.695 314.5,228.5C 321.465,219.931 327.965,210.931 334,201.5C 334.5,211.161 334.666,220.828 334.5,230.5 Z"/></g>
<g><path style="opacity:1" fill="#57a0dc" d="M 168.5,212.5 C 168.5,220.167 168.5,227.833 168.5,235.5C 163.615,242.909 158.448,250.243 153,257.5C 153,258.833 153,260.167 153,261.5C 151.732,261.384 150.398,261.051 149,260.5C 148.5,269.16 148.334,277.827 148.5,286.5C 147.596,285.791 147.263,284.791 147.5,283.5C 147.283,265.483 147.616,247.483 148.5,229.5C 153.049,220.754 158.382,212.421 164.5,204.5C 166.034,203.264 167.7,202.764 169.5,203C 168.549,206.057 168.216,209.223 168.5,212.5 Z"/></g>
<g><path style="opacity:0.719" fill="#df96d3" d="M 312.5,202.5 C 312.833,202.5 313.167,202.5 313.5,202.5C 314.442,211.113 314.775,219.779 314.5,228.5C 314.821,233.695 314.487,238.695 313.5,243.5C 313.61,229.631 313.277,215.965 312.5,202.5 Z"/></g>
<g><path style="opacity:0.957" fill="#a58cc2" d="M 239.5,240.5 C 240.978,240.238 242.311,240.571 243.5,241.5C 242.675,242.386 241.675,242.719 240.5,242.5C 240.719,243.675 240.386,244.675 239.5,245.5C 238.334,243.833 238.334,242.166 239.5,240.5 Z"/></g>
<g><path style="opacity:1" fill="#dd3dab" d="M 334.5,230.5 C 335.486,248.09 335.819,265.757 335.5,283.5C 335.768,285.099 335.434,286.432 334.5,287.5C 334.5,280.167 334.5,272.833 334.5,265.5C 334.789,259.755 334.289,254.088 333,248.5C 325.397,258.883 318.564,269.55 312.5,280.5C 312.366,278.708 312.699,277.042 313.5,275.5C 313.969,272.607 312.969,270.607 310.5,269.5C 308.969,265.917 309.802,262.917 313,260.5C 313.333,258.833 313.667,257.167 314,255.5C 314.893,256.711 315.726,256.711 316.5,255.5C 319.513,250.997 322.68,246.663 326,242.5C 327.639,237.521 330.472,233.521 334.5,230.5 Z"/></g>
<g><path style="opacity:0.578" fill="#c5c4e7" d="M 213.5,251.5 C 206.167,251.5 198.833,251.5 191.5,251.5C 195.835,250.689 200.335,250.022 205,249.5C 208.027,249.912 210.86,250.579 213.5,251.5 Z"/></g>
<g><path style="opacity:0.606" fill="#edbfe4" d="M 308.5,249.5 C 308.082,250.222 307.416,250.722 306.5,251C 302.167,251.333 297.833,251.667 293.5,252C 294.056,252.383 294.389,252.883 294.5,253.5C 291.827,253.316 291.16,252.149 292.5,250C 297.985,249.835 303.318,249.669 308.5,249.5 Z"/></g>
<g><path style="opacity:1" fill="#8d83ce" d="M 191.5,251.5 C 198.833,251.5 206.167,251.5 213.5,251.5C 214.497,269.993 214.83,288.659 214.5,307.5C 213.506,297.347 213.172,287.014 213.5,276.5C 213.5,272.5 213.5,268.5 213.5,264.5C 213.666,260.486 213.499,256.486 213,252.5C 207.611,260.23 202.611,268.23 198,276.5C 197.667,276.167 197.333,275.833 197,275.5C 196.037,278.617 194.204,280.951 191.5,282.5C 191.5,272.167 191.5,261.833 191.5,251.5 Z"/></g>
<g><path style="opacity:0.666" fill="#aca8dc" d="M 191.5,251.5 C 191.5,261.833 191.5,272.167 191.5,282.5C 191.666,286.846 191.499,291.179 191,295.5C 189.989,296.337 188.822,296.67 187.5,296.5C 187.5,295.5 187.5,294.5 187.5,293.5C 188.75,293.423 189.583,292.756 190,291.5C 190.169,277.994 190.669,264.66 191.5,251.5 Z"/></g>
<g><path style="opacity:1" fill="#a767c1" d="M 237.5,251.5 C 240.167,251.5 242.833,251.5 245.5,251.5C 245.5,254.5 245.5,257.5 245.5,260.5C 245.5,264.5 245.5,268.5 245.5,272.5C 244.778,272.082 244.278,271.416 244,270.5C 241.204,273.761 239.204,277.427 238,281.5C 237.5,289.493 237.334,297.493 237.5,305.5C 237.802,308.059 237.468,310.393 236.5,312.5C 236.5,292.5 236.5,272.5 236.5,252.5C 236.5,251.833 236.833,251.5 237.5,251.5 Z"/></g>
<g><path style="opacity:1" fill="#d595d2" d="M 270.5,259.5 C 272.167,260.5 273.5,261.833 274.5,263.5C 271.858,263.512 270.525,262.179 270.5,259.5 Z"/></g>
<g><path style="opacity:0.576" fill="#e7c1e4" d="M 274.5,263.5 C 275.906,263.973 276.573,264.973 276.5,266.5C 275.094,266.027 274.427,265.027 274.5,263.5 Z"/></g>
<g><path style="opacity:0.659" fill="#a2bbe5" d="M 169.5,205.5 C 169.835,228.958 169.835,252.958 169.5,277.5C 168.512,272.36 168.179,267.026 168.5,261.5C 168.5,252.833 168.5,244.167 168.5,235.5C 168.5,227.833 168.5,220.167 168.5,212.5C 169.468,210.393 169.802,208.059 169.5,205.5 Z"/></g>
<g><path style="opacity:1" fill="#ec32a5" d="M 334.5,265.5 C 334.5,272.833 334.5,280.167 334.5,287.5C 331.94,297.061 325.94,303.394 316.5,306.5C 312.808,307.029 309.642,306.029 307,303.5C 305.748,305.001 304.748,306.668 304,308.5C 303.5,308 303,307.5 302.5,307C 312.938,291.163 323.105,276.329 333,262.5C 333.232,263.737 333.732,264.737 334.5,265.5 Z"/></g>
<g><path style="opacity:1" fill="#f1add9" d="M 310.5,269.5 C 312.969,270.607 313.969,272.607 313.5,275.5C 312.514,273.574 311.514,271.574 310.5,269.5 Z"/></g>
<g><path style="opacity:1" fill="#6395d7" d="M 168.5,235.5 C 168.5,244.167 168.5,252.833 168.5,261.5C 166.204,263.401 164.371,265.734 163,268.5C 158.556,265.992 158.389,266.492 162.5,270C 161.354,270.645 160.354,271.478 159.5,272.5C 156.121,278.195 152.788,283.862 149.5,289.5C 148.596,288.791 148.263,287.791 148.5,286.5C 148.334,277.827 148.5,269.16 149,260.5C 150.398,261.051 151.732,261.384 153,261.5C 153,260.167 153,258.833 153,257.5C 158.448,250.243 163.615,242.909 168.5,235.5 Z"/></g>
<g><path style="opacity:0.706" fill="#eabbe1" d="M 282.5,272.5 C 284.587,273.585 285.92,275.251 286.5,277.5C 284.413,276.415 283.08,274.749 282.5,272.5 Z"/></g>
<g><path style="opacity:1" fill="#c54db3" d="M 270.5,259.5 C 270.525,262.179 271.858,263.512 274.5,263.5C 274.427,265.027 275.094,266.027 276.5,266.5C 278.833,268.167 280.833,270.167 282.5,272.5C 283.08,274.749 284.413,276.415 286.5,277.5C 288.833,279.167 290.833,281.167 292.5,283.5C 291.417,283.461 290.417,283.127 289.5,282.5C 288.333,284.167 287.167,285.833 286,287.5C 285.536,286.906 285.369,286.239 285.5,285.5C 286.598,284.399 286.765,283.066 286,281.5C 284.66,280.132 283.326,278.799 282,277.5C 277.822,283.204 273.655,288.87 269.5,294.5C 269.172,282.655 269.505,270.988 270.5,259.5 Z"/></g>
<g><path style="opacity:0.998" fill="#7a8dd3" d="M 168.5,261.5 C 168.179,267.026 168.512,272.36 169.5,277.5C 171.415,282.417 174.748,286.083 179.5,288.5C 178.07,288.579 176.736,288.246 175.5,287.5C 170.672,292.648 166.672,298.315 163.5,304.5C 156.334,301.836 151.667,296.836 149.5,289.5C 152.788,283.862 156.121,278.195 159.5,272.5C 160.354,271.478 161.354,270.645 162.5,270C 158.389,266.492 158.556,265.992 163,268.5C 164.371,265.734 166.204,263.401 168.5,261.5 Z"/></g>
<g><path style="opacity:1" fill="#ae58ba" d="M 245.5,272.5 C 245.5,280.833 245.5,289.167 245.5,297.5C 243.621,298.897 241.954,300.563 240.5,302.5C 239.359,303.425 239.359,304.259 240.5,305C 239.552,305.483 238.552,305.649 237.5,305.5C 237.334,297.493 237.5,289.493 238,281.5C 239.204,277.427 241.204,273.761 244,270.5C 244.278,271.416 244.778,272.082 245.5,272.5 Z"/></g>
<g><path style="opacity:1" fill="#d442ae" d="M 292.5,283.5 C 293.541,286.391 294.874,289.058 296.5,291.5C 297.715,292.779 297.382,293.779 295.5,294.5C 295.04,293.001 293.707,292.001 291.5,291.5C 291.34,295.236 290.507,295.236 289,291.5C 288.187,293.436 287.687,295.436 287.5,297.5C 290.827,300.028 291.161,299.528 288.5,296C 289.996,295.493 291.163,295.993 292,297.5C 292.417,296.244 293.25,295.577 294.5,295.5C 293.509,297.482 292.509,299.482 291.5,301.5C 287.568,306.355 283.401,311.022 279,315.5C 276.5,320.364 273.5,325.031 270,329.5C 269.275,331.157 269.775,332.157 271.5,332.5C 265.441,337.198 258.774,340.865 251.5,343.5C 247.134,343.669 245.967,342.003 248,338.5C 254.993,329.844 261.493,320.844 267.5,311.5C 270.835,310.452 272.335,308.118 272,304.5C 273.154,303.257 274.488,302.257 276,301.5C 278.342,295.594 281.508,290.261 285.5,285.5C 285.369,286.239 285.536,286.906 286,287.5C 287.167,285.833 288.333,284.167 289.5,282.5C 290.417,283.127 291.417,283.461 292.5,283.5 Z"/></g>
<g><path style="opacity:0.49" fill="#f5c3e3" d="M 308.5,285.5 C 308.027,286.906 307.027,287.573 305.5,287.5C 305.973,286.094 306.973,285.427 308.5,285.5 Z"/></g>
<g><path style="opacity:0.812" fill="#e5abd4" d="M 292.5,283.5 C 294.914,284.911 296.581,286.911 297.5,289.5C 296.662,289.842 296.328,290.508 296.5,291.5C 294.874,289.058 293.541,286.391 292.5,283.5 Z"/></g>
<g><path style="opacity:0.008" fill="#e7e5f0" d="M 182.5,290.5 C 184.38,290.229 185.713,290.896 186.5,292.5C 184.847,292.34 183.514,291.674 182.5,290.5 Z"/></g>
<g><path style="opacity:1" fill="#8880cd" d="M 179.5,288.5 C 180.71,288.932 181.71,289.599 182.5,290.5C 183.514,291.674 184.847,292.34 186.5,292.5C 187.167,292.5 187.5,292.833 187.5,293.5C 186.325,293.281 185.325,293.614 184.5,294.5C 180.689,299.479 176.689,304.312 172.5,309C 173.056,309.383 173.389,309.883 173.5,310.5C 169.827,309 166.494,307 163.5,304.5C 166.672,298.315 170.672,292.648 175.5,287.5C 176.736,288.246 178.07,288.579 179.5,288.5 Z"/></g>
<g><path style="opacity:0.798" fill="#c47bc8" d="M 245.5,260.5 C 246.497,276.992 246.83,293.658 246.5,310.5C 247.234,311.708 247.567,313.041 247.5,314.5C 246.778,314.082 246.278,313.416 246,312.5C 245.501,307.511 245.334,302.511 245.5,297.5C 245.5,289.167 245.5,280.833 245.5,272.5C 245.5,268.5 245.5,264.5 245.5,260.5 Z"/></g>
<g><path style="opacity:0.78" fill="#e5aed3" d="M 303.5,288.5 C 301.677,289.719 300.677,291.053 300.5,292.5C 299.145,291.812 298.145,290.812 297.5,289.5C 299.565,289.483 301.565,289.15 303.5,288.5 Z"/></g>
<g><path style="opacity:1" fill="#e13ca9" d="M 334.5,265.5 C 333.732,264.737 333.232,263.737 333,262.5C 323.105,276.329 312.938,291.163 302.5,307C 303,307.5 303.5,308 304,308.5C 304.748,306.668 305.748,305.001 307,303.5C 309.642,306.029 312.808,307.029 316.5,306.5C 301.998,315.921 286.998,324.588 271.5,332.5C 269.775,332.157 269.275,331.157 270,329.5C 273.5,325.031 276.5,320.364 279,315.5C 283.401,311.022 287.568,306.355 291.5,301.5C 292.509,299.482 293.509,297.482 294.5,295.5C 295.167,295.5 295.5,295.167 295.5,294.5C 297.382,293.779 297.715,292.779 296.5,291.5C 296.328,290.508 296.662,289.842 297.5,289.5C 298.145,290.812 299.145,291.812 300.5,292.5C 300.677,291.053 301.677,289.719 303.5,288.5C 303.842,287.662 304.508,287.328 305.5,287.5C 307.027,287.573 308.027,286.906 308.5,285.5C 309.864,283.809 311.197,282.142 312.5,280.5C 318.564,269.55 325.397,258.883 333,248.5C 334.289,254.088 334.789,259.755 334.5,265.5 Z"/></g>
<g><path style="opacity:1" fill="#da8ac3" d="M 295.5,294.5 C 295.5,295.167 295.167,295.5 294.5,295.5C 293.25,295.577 292.417,296.244 292,297.5C 291.163,295.993 289.996,295.493 288.5,296C 291.161,299.528 290.827,300.028 287.5,297.5C 287.687,295.436 288.187,293.436 289,291.5C 290.507,295.236 291.34,295.236 291.5,291.5C 293.707,292.001 295.04,293.001 295.5,294.5 Z"/></g>
<g><path style="opacity:0.999" fill="#8c76c8" d="M 213.5,264.5 C 211.584,269.666 209.084,274.666 206,279.5C 197.613,290.22 189.613,301.22 182,312.5C 181.53,313.577 181.697,314.577 182.5,315.5C 180.181,315.008 178.181,314.008 176.5,312.5C 176.027,311.094 175.027,310.427 173.5,310.5C 173.389,309.883 173.056,309.383 172.5,309C 176.689,304.312 180.689,299.479 184.5,294.5C 185.325,293.614 186.325,293.281 187.5,293.5C 187.5,294.5 187.5,295.5 187.5,296.5C 188.822,296.67 189.989,296.337 191,295.5C 191.499,291.179 191.666,286.846 191.5,282.5C 194.204,280.951 196.037,278.617 197,275.5C 197.333,275.833 197.667,276.167 198,276.5C 202.611,268.23 207.611,260.23 213,252.5C 213.499,256.486 213.666,260.486 213.5,264.5 Z"/></g>
<g><path style="opacity:0.366" fill="#e8b8e0" d="M 270.5,259.5 C 269.505,270.988 269.172,282.655 269.5,294.5C 269.817,298.702 269.483,302.702 268.5,306.5C 268.167,290.486 268.501,274.486 269.5,258.5C 270.107,258.624 270.44,258.957 270.5,259.5 Z"/></g>
<g><path style="opacity:1" fill="#db90c5" d="M 287.5,297.5 C 289.034,299.342 288.7,300.675 286.5,301.5C 285.643,300.264 284.977,298.931 284.5,297.5C 285.425,296.438 286.425,296.438 287.5,297.5 Z"/></g>
<g><path style="opacity:0.999" fill="#966ec5" d="M 213.5,264.5 C 213.5,268.5 213.5,272.5 213.5,276.5C 212.93,285.304 209.43,292.637 203,298.5C 200.419,301.207 200.252,303.874 202.5,306.5C 200.711,310.422 198.711,314.089 196.5,317.5C 195.448,317.351 194.448,317.517 193.5,318C 193.47,319.429 193.803,320.929 194.5,322.5C 192.181,322.008 190.181,321.008 188.5,319.5C 188.027,318.094 187.027,317.427 185.5,317.5C 185.027,316.094 184.027,315.427 182.5,315.5C 181.697,314.577 181.53,313.577 182,312.5C 189.613,301.22 197.613,290.22 206,279.5C 209.084,274.666 211.584,269.666 213.5,264.5 Z"/></g>
<g><path style="opacity:1" fill="#ba55b7" d="M 245.5,297.5 C 245.334,302.511 245.501,307.511 246,312.5C 246.278,313.416 246.778,314.082 247.5,314.5C 248.5,314.833 249.167,315.5 249.5,316.5C 247.83,316.249 246.33,315.582 245,314.5C 242.07,318.699 239.403,323.032 237,327.5C 233.426,331.178 230.259,335.678 227.5,341C 229.119,341.236 230.119,342.069 230.5,343.5C 228.847,343.34 227.514,342.674 226.5,341.5C 226.027,340.094 225.027,339.427 223.5,339.5C 222.508,339.672 221.842,339.338 221.5,338.5C 221.027,337.094 220.027,336.427 218.5,336.5C 217.508,336.672 216.842,336.338 216.5,335.5C 216.027,334.094 215.027,333.427 213.5,333.5C 212.387,330.659 212.887,327.993 215,325.5C 215.914,326.654 216.747,326.487 217.5,325C 217.167,324.667 216.833,324.333 216.5,324C 218.422,322.54 219.089,320.873 218.5,319C 219.448,318.517 220.448,318.351 221.5,318.5C 221.351,317.448 221.517,316.448 222,315.5C 223.299,315.966 224.799,315.966 226.5,315.5C 230.829,317.455 234.162,316.455 236.5,312.5C 237.468,310.393 237.802,308.059 237.5,305.5C 238.552,305.649 239.552,305.483 240.5,305C 239.359,304.259 239.359,303.425 240.5,302.5C 241.954,300.563 243.621,298.897 245.5,297.5 Z"/></g>
<g><path style="opacity:1" fill="#9d66c0" d="M 213.5,276.5 C 213.172,287.014 213.506,297.347 214.5,307.5C 214.5,307.833 214.5,308.167 214.5,308.5C 211.968,308.829 210.968,309.995 211.5,312C 209.833,312.333 208.167,312.667 206.5,313C 207.167,313.333 207.833,313.667 208.5,314C 205.236,317.699 202.903,321.866 201.5,326.5C 199.847,326.34 198.514,325.674 197.5,324.5C 197.027,323.094 196.027,322.427 194.5,322.5C 193.803,320.929 193.47,319.429 193.5,318C 194.448,317.517 195.448,317.351 196.5,317.5C 198.711,314.089 200.711,310.422 202.5,306.5C 200.252,303.874 200.419,301.207 203,298.5C 209.43,292.637 212.93,285.304 213.5,276.5 Z"/></g>
<g><path style="opacity:1" fill="#c948b1" d="M 285.5,285.5 C 281.508,290.261 278.342,295.594 276,301.5C 274.488,302.257 273.154,303.257 272,304.5C 272.335,308.118 270.835,310.452 267.5,311.5C 261.493,320.844 254.993,329.844 248,338.5C 245.967,342.003 247.134,343.669 251.5,343.5C 250.791,344.404 249.791,344.737 248.5,344.5C 246.43,344.551 244.597,343.885 243,342.5C 241.635,343.456 240.135,344.122 238.5,344.5C 236.182,344.003 233.848,343.67 231.5,343.5C 231.167,343.5 230.833,343.5 230.5,343.5C 230.119,342.069 229.119,341.236 227.5,341C 230.259,335.678 233.426,331.178 237,327.5C 239.403,323.032 242.07,318.699 245,314.5C 246.33,315.582 247.83,316.249 249.5,316.5C 251.5,316.5 253.5,316.5 255.5,316.5C 257.027,316.573 258.027,315.906 258.5,314.5C 258.842,313.662 259.508,313.328 260.5,313.5C 262.027,313.573 263.027,312.906 263.5,311.5C 265.5,310.167 267.167,308.5 268.5,306.5C 269.483,302.702 269.817,298.702 269.5,294.5C 273.655,288.87 277.822,283.204 282,277.5C 283.326,278.799 284.66,280.132 286,281.5C 286.765,283.066 286.598,284.399 285.5,285.5 Z"/></g>
<g><path style="opacity:0.235" fill="#dad4ed" d="M 173.5,310.5 C 175.027,310.427 176.027,311.094 176.5,312.5C 174.973,312.573 173.973,311.906 173.5,310.5 Z"/></g>
<g><path style="opacity:1" fill="#c797d3" d="M 214.5,307.5 C 216.6,309.616 218.933,311.283 221.5,312.5C 219.856,312.714 218.356,312.38 217,311.5C 216.581,312.672 215.915,313.672 215,314.5C 215.614,312.46 215.448,310.46 214.5,308.5C 214.5,308.167 214.5,307.833 214.5,307.5 Z"/></g>
<g><path style="opacity:0.608" fill="#ecbce2" d="M 263.5,311.5 C 263.027,312.906 262.027,313.573 260.5,313.5C 260.973,312.094 261.973,311.427 263.5,311.5 Z"/></g>
<g><path style="opacity:0.635" fill="#eab6de" d="M 258.5,314.5 C 258.027,315.906 257.027,316.573 255.5,316.5C 255.973,315.094 256.973,314.427 258.5,314.5 Z"/></g>
<g><path style="opacity:0.318" fill="#d7cae8" d="M 182.5,315.5 C 184.027,315.427 185.027,316.094 185.5,317.5C 183.973,317.573 182.973,316.906 182.5,315.5 Z"/></g>
<g><path style="opacity:1" fill="#ad62be" d="M 214.5,308.5 C 215.448,310.46 215.614,312.46 215,314.5C 215.915,313.672 216.581,312.672 217,311.5C 218.356,312.38 219.856,312.714 221.5,312.5C 223.368,313.263 225.035,314.263 226.5,315.5C 224.799,315.966 223.299,315.966 222,315.5C 221.517,316.448 221.351,317.448 221.5,318.5C 220.448,318.351 219.448,318.517 218.5,319C 219.089,320.873 218.422,322.54 216.5,324C 216.833,324.333 217.167,324.667 217.5,325C 216.747,326.487 215.914,326.654 215,325.5C 212.887,327.993 212.387,330.659 213.5,333.5C 210.008,332.59 207.008,330.924 204.5,328.5C 204.027,327.094 203.027,326.427 201.5,326.5C 202.903,321.866 205.236,317.699 208.5,314C 207.833,313.667 207.167,313.333 206.5,313C 208.167,312.667 209.833,312.333 211.5,312C 210.968,309.995 211.968,308.829 214.5,308.5 Z"/></g>
<g><path style="opacity:0.259" fill="#ddd0eb" d="M 185.5,317.5 C 187.027,317.427 188.027,318.094 188.5,319.5C 186.973,319.573 185.973,318.906 185.5,317.5 Z"/></g>
<g><path style="opacity:0.275" fill="#e2d0eb" d="M 194.5,322.5 C 196.027,322.427 197.027,323.094 197.5,324.5C 195.973,324.573 194.973,323.906 194.5,322.5 Z"/></g>
<g><path style="opacity:0.329" fill="#ddc4e6" d="M 201.5,326.5 C 203.027,326.427 204.027,327.094 204.5,328.5C 202.973,328.573 201.973,327.906 201.5,326.5 Z"/></g>
<g><path style="opacity:0.263" fill="#e9d0ea" d="M 213.5,333.5 C 215.027,333.427 216.027,334.094 216.5,335.5C 214.973,335.573 213.973,334.906 213.5,333.5 Z"/></g>
<g><path style="opacity:0.235" fill="#eacde8" d="M 218.5,336.5 C 220.027,336.427 221.027,337.094 221.5,338.5C 219.973,338.573 218.973,337.906 218.5,336.5 Z"/></g>
<g><path style="opacity:0.247" fill="#eed1eb" d="M 223.5,339.5 C 225.027,339.427 226.027,340.094 226.5,341.5C 224.973,341.573 223.973,340.906 223.5,339.5 Z"/></g>
<g><path style="opacity:0.992" fill="#e19cd3" d="M 248.5,344.5 C 242.731,346.985 237.065,346.652 231.5,343.5C 233.848,343.67 236.182,344.003 238.5,344.5C 240.135,344.122 241.635,343.456 243,342.5C 244.597,343.885 246.43,344.551 248.5,344.5 Z"/></g>
</svg>
